<?xml version="1.0" encoding="UTF-8"?>
<!DOCTYPE svg PUBLIC "-//W3C//DTD SVG 1.1//EN" "http://www.w3.org/Graphics/SVG/1.1/DTD/svg11.dtd">
<!-- Creator: CorelDRAW X7 -->
<svg xmlns="http://www.w3.org/2000/svg" xml:space="preserve" width="46.595mm" height="41.119mm" version="1.1" style="shape-rendering:geometricPrecision; text-rendering:geometricPrecision; image-rendering:optimizeQuality; fill-rule:evenodd; clip-rule:evenodd"
viewBox="0 0 4660 4112"
 xmlns:xlink="http://www.w3.org/1999/xlink"
 xmlns:xodm="http://www.corel.com/coreldraw/odm/2003">
 <defs>
  <style type="text/css">
   <![CDATA[
    .str0 {stroke:#009846;stroke-width:35.28;stroke-opacity:0.501961}
    .fil6 {fill:none;fill-rule:nonzero}
    .fil3 {fill:#B2B3B3}
    .fil4 {fill:#009846}
    .fil1 {fill:#2B2A29;fill-rule:nonzero}
    .fil2 {fill:#2B2A29;fill-rule:nonzero}
    .fil0 {fill:#009846;fill-rule:nonzero}
    .fil5 {fill:#1C1B17;fill-rule:nonzero}
   ]]>
  </style>
 </defs>
 <g id="Layer_x0020_1">
  <metadata id="CorelCorpID_0Corel-Layer"/>
  <g id="_2263688007424">
   <g>
    <path class="fil0" d="M271 2686l1 0 48 158 -99 0 50 -158zm-221 326l117 0 28 -80 152 0 27 80 119 0 -163 -451 -116 0 -164 451zm895 -247l-185 0 0 87 80 0c-8,45 -41,68 -100,69 -37,-1 -63,-15 -78,-43 -17,-26 -25,-57 -24,-92 -1,-35 7,-66 24,-93 15,-27 41,-41 78,-42 23,0 43,5 59,16 16,11 25,27 27,47l115 0c-7,-57 -30,-99 -69,-125 -39,-26 -82,-39 -130,-39 -67,1 -120,23 -159,68 -39,44 -59,100 -59,168 0,67 20,122 59,167 39,45 92,68 159,69 21,0 43,-4 66,-13 22,-10 41,-25 57,-46l0 0 6 49 74 0 0 -247zm88 247l114 0 0 -164 86 0c14,0 25,2 33,7 8,5 15,12 19,21 4,9 7,19 9,30 1,11 3,22 3,34 1,8 2,19 4,35 1,7 2,14 3,21 1,7 3,13 6,16l112 0c-3,-4 -6,-11 -8,-21 -3,-8 -4,-18 -6,-29 -2,-23 -4,-40 -4,-52 -1,-22 -7,-44 -16,-66 -5,-11 -12,-20 -20,-27 -8,-7 -18,-12 -30,-15l0 -1c24,-10 42,-25 54,-46 11,-20 17,-43 17,-67 -1,-46 -16,-79 -47,-98 -30,-20 -66,-29 -106,-29l-223 0 0 451zm114 -358l90 0c17,0 30,4 41,12 11,8 16,20 17,37 -1,36 -18,53 -53,54l-95 0 0 -103zm343 358l114 0 0 -451 -114 0 0 451zm373 -151c2,57 22,98 58,124 36,24 80,37 132,37 51,0 95,-11 132,-33 39,-23 59,-63 60,-119 0,-21 -4,-38 -11,-53 -7,-14 -17,-26 -29,-36 -25,-20 -54,-34 -88,-42 -8,-2 -15,-5 -23,-7 -8,-2 -16,-4 -23,-5 -15,-4 -28,-8 -41,-12 -12,-4 -21,-9 -28,-14 -8,-6 -12,-13 -12,-21 0,-15 7,-26 19,-31 11,-6 23,-8 36,-8 19,0 36,4 50,11 14,8 21,23 21,43l114 0c0,-26 -5,-48 -15,-66 -10,-19 -23,-34 -40,-45 -35,-23 -75,-34 -120,-34 -44,0 -83,10 -120,31 -17,11 -32,25 -42,43 -11,17 -17,39 -17,63 1,41 15,70 41,89 26,20 55,34 88,42 33,8 62,16 87,25 12,4 21,9 28,16 7,7 11,15 11,25 -1,17 -8,28 -22,36 -7,4 -14,6 -22,8 -9,2 -18,3 -27,3 -24,0 -44,-5 -59,-16 -14,-10 -23,-28 -24,-54l-114 0zm448 151l355 0 0 -101 -241 0 0 -86 215 0 0 -91 -215 0 0 -80 235 0 0 -93 -349 0 0 451zm609 -326l1 0 49 158 -100 0 50 -158zm-220 326l117 0 27 -80 153 0 27 80 118 0 -163 -451 -116 0 -163 451zm490 0l114 0 0 -164 86 0c14,0 25,2 33,7 8,5 15,12 19,21 4,9 7,19 9,30 2,11 3,22 3,34 1,8 2,19 4,35 1,7 2,14 3,21 1,7 3,13 6,16l112 0c-3,-4 -6,-11 -8,-21 -3,-8 -4,-18 -6,-29 -2,-23 -4,-40 -4,-52 -1,-22 -7,-44 -16,-66 -5,-11 -12,-20 -20,-27 -8,-7 -18,-12 -30,-15l0 -1c24,-10 42,-25 54,-46 11,-20 17,-43 17,-67 -1,-46 -16,-79 -47,-98 -30,-20 -66,-29 -106,-29l-223 0 0 451zm114 -358l90 0c17,0 30,4 41,12 11,8 16,20 17,37 -1,36 -18,53 -53,54l-95 0 0 -103zm747 67c-3,-55 -25,-97 -65,-127 -40,-29 -85,-44 -135,-44 -67,1 -119,23 -158,68 -39,44 -59,100 -60,168 1,67 21,122 60,167 39,45 91,68 158,69 57,0 104,-17 140,-49 36,-32 56,-78 60,-136l-114 0c-5,55 -34,83 -88,84 -36,-1 -62,-15 -78,-43 -16,-26 -24,-57 -24,-92 0,-35 8,-66 24,-93 16,-27 42,-41 78,-42 25,0 45,6 60,17 16,12 25,30 28,53l114 0zm75 291l114 0 0 -186 150 0 0 186 114 0 0 -451 -114 0 0 164 -150 0 0 -164 -114 0 0 451z"/>
    <path class="fil1" d="M971 3622c-21,-30 -36,-61 -46,-94 -10,-32 -14,-69 -14,-109 0,-34 5,-66 15,-98 10,-32 25,-61 44,-88l33 0c-13,22 -23,50 -30,83 -6,33 -9,71 -9,113 0,42 3,79 10,110 6,32 16,59 30,83l-33 0zm71 -77l0 -305 57 0 0 305 -57 0zm109 0l0 -305 58 0 79 214 -1 -214 53 0 0 305 -58 0 -80 -213 2 213 -53 0zm297 -45l25 0c13,0 22,-1 27,-2 5,-2 9,-5 12,-10 5,-8 9,-19 11,-33 3,-13 4,-35 4,-66 0,-29 -2,-51 -4,-64 -3,-14 -7,-24 -14,-31 -3,-3 -7,-5 -12,-7 -6,-1 -14,-2 -25,-2l-24 0 0 215zm-56 45l0 -305 91 0c19,0 34,2 45,5 11,3 20,9 27,16 11,10 18,23 23,39 4,16 6,41 6,74 0,44 -1,74 -4,92 -3,18 -8,33 -16,46 -7,12 -16,21 -29,26 -12,5 -34,7 -65,7l-78 0zm238 0l0 -305 57 0 0 305 -57 0zm168 -122l48 0 -24 -128 -24 128zm-81 122l68 -305 76 0 70 305 -61 0 -15 -76 -66 0 -14 76 -58 0zm264 77l-33 0c13,-24 24,-51 30,-83 7,-31 10,-68 10,-110 0,-42 -3,-80 -10,-113 -6,-33 -16,-61 -29,-83l33 0c19,27 34,56 44,88 10,32 15,64 15,98 0,40 -5,77 -14,109 -10,33 -25,64 -46,94zm269 -248l24 0c18,0 30,-4 37,-11 7,-6 11,-18 11,-35 0,-17 -3,-29 -10,-35 -7,-7 -19,-10 -37,-10l-25 0 0 91zm-55 171l0 -305 99 0c30,0 52,7 65,21 13,13 20,35 20,66 0,30 -7,52 -21,67 -15,15 -36,22 -65,22l-41 0 0 129 -57 0zm269 0l-68 -305 60 0 46 244 41 -244 60 0 -64 305 -75 0zm217 0l0 -254 -65 0 0 -51 187 0 0 51 -65 0 0 254 -57 0zm111 0l0 -54 51 0 0 54 -51 0zm203 0l0 -305 57 0 0 253 102 0 0 52 -159 0zm208 0l0 -254 -65 0 0 -51 187 0 0 51 -65 0 0 254 -57 0zm208 -45l25 0c13,0 22,-1 27,-2 5,-2 9,-5 12,-10 5,-8 9,-19 11,-33 3,-13 4,-35 4,-66 0,-29 -2,-51 -4,-64 -3,-14 -7,-24 -14,-31 -3,-3 -7,-5 -13,-7 -5,-1 -13,-2 -24,-2l-24 0 0 215zm-56 45l0 -305 91 0c19,0 34,2 45,5 11,3 20,9 27,16 11,10 18,23 23,39 4,16 6,41 6,74 0,44 -1,74 -4,92 -3,18 -9,33 -16,46 -7,12 -17,21 -29,26 -12,5 -34,7 -65,7l-78 0zm238 0l0 -54 51 0 0 54 -51 0z"/>
   </g>
   <path class="fil2" d="M42 4046l24 0 -12 -65 -12 65zm-42 62l35 -155 39 0 35 155 -31 0 -8 -39 -33 0 -7 39 -30 0zm124 0l0 -155 30 0 41 108 -1 -108 27 0 0 155 -29 0 -41 -109 1 109 -28 0zm175 0l0 -155 29 0 0 155 -29 0zm53 -54l29 0 0 10c0,9 1,16 3,19 3,4 7,5 13,5 6,0 11,-1 14,-4 3,-3 5,-8 5,-14 0,-5 -1,-9 -4,-12 -2,-3 -7,-8 -14,-13l-15 -10c-13,-9 -21,-17 -24,-22 -4,-6 -6,-13 -6,-22 0,-13 4,-24 12,-31 8,-7 18,-11 32,-11 14,0 25,4 33,12 8,8 12,19 12,34 0,1 0,2 0,3 0,1 0,2 -1,2l-27 0 0 -4c0,-8 -1,-14 -4,-18 -3,-4 -7,-5 -14,-5 -4,0 -8,1 -11,4 -2,2 -4,6 -4,11 0,7 6,14 18,22 0,0 0,0 0,0l16 11c12,7 19,14 24,21 4,7 6,15 6,26 0,14 -4,25 -13,32 -8,8 -19,12 -34,12 -16,0 -27,-4 -35,-12 -8,-8 -11,-21 -11,-37 0,-2 0,-5 0,-9l0 0zm143 -24c0,26 1,42 4,49 3,6 9,10 17,10 8,0 13,-3 16,-10 3,-6 4,-23 4,-49 0,-25 -1,-42 -4,-48 -3,-7 -9,-10 -17,-10 -8,0 -13,3 -16,10 -3,6 -4,23 -4,48zm-30 0c0,-16 1,-29 2,-39 2,-10 4,-17 8,-22 4,-7 9,-12 16,-15 6,-3 14,-5 24,-5 11,0 19,2 25,5 6,3 12,8 16,15 4,5 6,12 8,22 1,10 2,23 2,39 0,17 -1,30 -2,40 -2,10 -4,17 -8,22 -4,7 -10,12 -16,15 -6,3 -14,5 -25,5 -10,0 -18,-2 -24,-5 -7,-3 -12,-8 -16,-15 -4,-5 -6,-12 -8,-22 -1,-10 -2,-23 -2,-40zm229 19c-3,4 -6,6 -9,8 -4,2 -8,2 -14,2 -12,0 -20,-4 -26,-12 -6,-8 -9,-20 -9,-37 0,-21 4,-36 10,-45 6,-9 17,-13 32,-13 9,0 16,1 22,4 6,3 10,7 14,13 3,5 5,11 6,21 1,9 2,23 2,41 0,18 -1,32 -2,41 -1,9 -3,16 -5,20 -4,7 -9,12 -15,15 -6,3 -13,4 -21,4 -13,0 -23,-3 -30,-8 -6,-6 -10,-15 -10,-26l0 -1 28 0 0 2c0,4 1,7 3,9 2,2 5,3 9,3 5,0 9,-2 11,-7 3,-5 4,-13 4,-26l0 -8zm-1 -44c0,-12 -1,-20 -3,-25 -2,-4 -5,-6 -11,-6 -5,0 -9,2 -11,6 -2,4 -3,12 -3,25 0,13 1,22 3,26 2,4 6,5 11,5 6,0 9,-2 11,-6 2,-4 3,-12 3,-25zm104 39l0 -42c0,-12 -1,-20 -3,-23 -2,-4 -6,-6 -11,-6 -5,0 -9,2 -11,6 -2,3 -3,12 -3,25l0 14 0 43c0,12 1,20 3,23 2,4 6,6 11,6 5,0 9,-2 11,-6 2,-3 3,-12 3,-25l0 -15zm-57 -14c0,-18 1,-32 2,-41 1,-9 3,-16 6,-20 4,-6 8,-11 14,-13 5,-3 12,-4 21,-4 9,0 16,1 21,4 6,2 10,7 14,13 3,4 5,11 6,20 1,9 2,23 2,41 0,19 -1,33 -2,42 -1,9 -3,16 -5,20 -4,7 -9,12 -15,15 -5,3 -12,4 -21,4 -9,0 -16,-1 -22,-4 -5,-3 -10,-8 -14,-15 -2,-4 -4,-11 -5,-19 -1,-9 -2,-23 -2,-43zm160 14l0 -42c0,-12 -1,-20 -3,-23 -2,-4 -5,-6 -11,-6 -5,0 -9,2 -10,6 -2,3 -3,12 -3,25l0 14 0 43c0,12 0,20 2,23 2,4 6,6 11,6 6,0 9,-2 11,-6 2,-3 3,-12 3,-25l0 -15zm-56 -14c0,-18 0,-32 1,-41 1,-9 3,-16 6,-20 4,-6 9,-11 14,-13 6,-3 13,-4 21,-4 9,0 16,1 22,4 5,2 10,7 13,13 3,4 5,11 6,20 2,9 2,23 2,41 0,19 0,33 -1,42 -2,9 -3,16 -6,20 -4,7 -9,12 -14,15 -6,3 -13,4 -22,4 -8,0 -15,-1 -21,-4 -6,-3 -10,-8 -14,-15 -3,-4 -5,-11 -6,-19 -1,-9 -1,-23 -1,-43zm138 78l0 -109 -35 0 0 -19c13,0 23,-3 30,-8 7,-4 12,-11 13,-20l19 0 0 156 -27 0zm75 -87l0 -28 26 0 0 28 -26 0zm0 87l0 -28 26 0 0 28 -26 0zm50 0c0,0 0,-1 0,-2 0,-1 0,-2 0,-3 0,-12 2,-23 7,-34 5,-11 12,-22 22,-32 2,-2 5,-5 8,-8 7,-6 12,-11 14,-14 2,-4 3,-7 4,-10 1,-4 2,-8 2,-12 0,-7 -1,-12 -4,-15 -2,-3 -6,-5 -11,-5 -5,0 -9,2 -11,6 -2,4 -4,10 -4,19 0,1 1,3 1,3 0,1 0,2 0,3l-27 0c0,-1 0,-2 -1,-3 0,-1 0,-2 0,-2 0,-17 4,-29 11,-36 7,-8 17,-11 32,-11 14,0 25,3 32,10 7,7 11,17 11,29 0,6 -1,12 -2,17 -1,5 -3,10 -6,14 -2,4 -7,10 -15,17 -3,4 -6,7 -8,10l-1 0c-14,16 -23,28 -25,34l55 0 0 25 -84 0zm160 -64l0 -42c0,-12 -1,-20 -3,-23 -2,-4 -6,-6 -11,-6 -5,0 -9,2 -11,6 -2,3 -3,12 -3,25l0 14 0 43c0,12 1,20 3,23 2,4 6,6 11,6 5,0 9,-2 11,-6 2,-3 3,-12 3,-25l0 -15zm-57 -14c0,-18 1,-32 2,-41 1,-9 3,-16 6,-20 4,-6 8,-11 14,-13 5,-3 12,-4 21,-4 9,0 16,1 21,4 6,2 10,7 14,13 3,4 5,11 6,20 1,9 2,23 2,41 0,19 -1,33 -2,42 -1,9 -3,16 -6,20 -3,7 -8,12 -14,15 -5,3 -12,4 -21,4 -9,0 -16,-1 -22,-4 -5,-3 -10,-8 -14,-15 -2,-4 -4,-11 -5,-19 -1,-9 -2,-23 -2,-43zm138 78l0 -109 -34 0 0 -19c13,0 23,-3 30,-8 7,-4 11,-11 12,-20l20 0 0 156 -28 0zm68 -50l27 0 0 4c0,10 1,16 4,21 3,5 6,7 12,7 5,0 9,-3 11,-8 3,-6 4,-14 4,-27 0,-11 -1,-19 -4,-24 -3,-5 -7,-8 -13,-8 -4,0 -7,2 -10,4 -2,2 -4,5 -4,9l-25 0 4 -81 73 0 0 24 -52 0 -1 32c2,-3 6,-6 9,-7 3,-1 7,-2 12,-2 13,0 23,4 29,13 7,8 10,21 10,38 0,21 -3,35 -10,44 -7,10 -19,14 -34,14 -14,0 -25,-4 -32,-12 -6,-8 -10,-20 -10,-37l0 -4zm210 -56c4,-3 7,-6 8,-9 2,-3 3,-7 3,-10 0,-4 -1,-7 -2,-9 -2,-2 -5,-2 -8,-2 -3,0 -6,0 -7,2 -2,2 -3,5 -3,8 0,1 0,2 0,3 1,1 1,3 2,4l7 13zm16 77l-25 -42c-5,3 -9,7 -11,12 -2,4 -4,9 -4,14 0,7 2,13 6,18 4,4 9,7 15,7 3,0 7,-1 9,-2 3,-1 7,-3 10,-7zm16 29l-5 -10c-4,5 -9,8 -15,10 -5,2 -11,3 -18,3 -14,0 -25,-4 -33,-13 -8,-8 -12,-19 -12,-34 0,-9 2,-17 7,-24 4,-7 12,-15 23,-23 -5,-7 -8,-13 -10,-18 -1,-5 -2,-10 -2,-15 0,-9 3,-17 9,-23 6,-5 14,-8 24,-8 11,0 19,2 25,7 6,5 9,13 9,22 0,8 -2,15 -6,22 -3,7 -9,12 -16,17l18 32c2,-3 3,-7 3,-11 1,-4 1,-8 1,-13l0 -3 24 0c0,11 -1,21 -4,29 -2,8 -5,16 -9,22l18 31 -31 0zm137 0l0 -109 -35 0 0 -19c13,0 23,-3 30,-8 7,-4 11,-11 13,-20l19 0 0 156 -27 0zm87 -53l29 0 0 -63 -29 63zm28 53l0 -31 -49 0 0 -24 46 -98 30 0 0 99 13 0 0 23 -13 0 0 31 -27 0zm113 -64l0 -42c0,-12 -1,-20 -3,-23 -2,-4 -5,-6 -11,-6 -5,0 -9,2 -11,6 -2,3 -3,12 -3,25l0 14 0 43c0,12 1,20 3,23 2,4 6,6 11,6 6,0 9,-2 11,-6 2,-3 3,-12 3,-25l0 -15zm-56 -14c0,-18 0,-32 1,-41 1,-9 3,-16 6,-20 4,-6 9,-11 14,-13 6,-3 13,-4 21,-4 9,0 16,1 22,4 5,2 10,7 13,13 3,4 5,11 6,20 2,9 2,23 2,41 0,19 0,33 -2,42 -1,9 -3,16 -5,20 -4,7 -9,12 -14,15 -6,3 -13,4 -22,4 -8,0 -16,-1 -21,-4 -6,-3 -11,-8 -14,-15 -3,-4 -5,-11 -6,-19 -1,-9 -1,-23 -1,-43zm160 14l0 -42c0,-12 -1,-20 -3,-23 -2,-4 -6,-6 -11,-6 -6,0 -9,2 -11,6 -2,3 -3,12 -3,25l0 14 0 43c0,12 1,20 3,23 2,4 5,6 11,6 5,0 9,-2 11,-6 2,-3 3,-12 3,-25l0 -15zm-57 -14c0,-18 0,-32 2,-41 1,-9 3,-16 6,-20 3,-6 8,-11 13,-13 6,-3 13,-4 22,-4 8,0 15,1 21,4 6,2 10,7 14,13 3,4 5,11 6,20 1,9 2,23 2,41 0,19 -1,33 -2,42 -1,9 -3,16 -6,20 -4,7 -8,12 -14,15 -5,3 -13,4 -21,4 -9,0 -16,-1 -22,-4 -5,-3 -10,-8 -14,-15 -2,-4 -4,-11 -5,-19 -2,-9 -2,-23 -2,-43zm138 78l0 -109 -34 0 0 -19c12,0 22,-3 29,-8 8,-4 12,-11 13,-20l19 0 0 156 -27 0zm75 -87l0 -28 26 0 0 28 -26 0zm0 87l0 -28 26 0 0 28 -26 0zm50 0c0,0 0,-1 0,-2 0,-1 0,-2 0,-3 0,-12 2,-23 7,-34 5,-11 13,-22 23,-32 2,-2 4,-5 8,-8 7,-6 11,-11 13,-14 2,-4 4,-7 5,-10 1,-4 1,-8 1,-12 0,-7 -1,-12 -3,-15 -3,-3 -6,-5 -11,-5 -5,0 -9,2 -12,6 -2,4 -3,10 -3,19 0,1 0,3 0,3 0,1 0,2 0,3l-27 0c0,-1 0,-2 0,-3 0,-1 0,-2 0,-2 0,-17 3,-29 10,-36 7,-8 18,-11 33,-11 13,0 24,3 31,10 8,7 11,17 11,29 0,6 0,12 -2,17 -1,5 -3,10 -6,14 -2,4 -7,10 -14,17 -4,4 -7,7 -9,10l0 0c-15,16 -23,28 -25,34l55 0 0 25 -85 0zm160 -64l0 -42c0,-12 -1,-20 -3,-23 -2,-4 -5,-6 -11,-6 -5,0 -9,2 -11,6 -2,3 -3,12 -3,25l0 14 0 43c0,12 1,20 3,23 2,4 6,6 11,6 6,0 9,-2 11,-6 2,-3 3,-12 3,-25l0 -15zm-57 -14c0,-18 1,-32 2,-41 1,-9 3,-16 6,-20 4,-6 8,-11 14,-13 6,-3 13,-4 21,-4 9,0 16,1 22,4 5,2 10,7 13,13 3,4 5,11 6,20 2,9 2,23 2,41 0,19 0,33 -2,42 -1,9 -3,16 -5,20 -4,7 -9,12 -14,15 -6,3 -13,4 -22,4 -8,0 -16,-1 -21,-4 -6,-3 -11,-8 -14,-15 -3,-4 -5,-11 -6,-19 -1,-9 -2,-23 -2,-43zm139 78l0 -109 -35 0 0 -19c13,0 23,-3 30,-8 7,-4 11,-11 13,-20l19 0 0 156 -27 0zm67 -50l27 0 0 4c0,10 2,16 4,21 3,5 7,7 12,7 5,0 9,-3 12,-8 2,-6 3,-14 3,-27 0,-11 -1,-19 -4,-24 -2,-5 -7,-8 -13,-8 -4,0 -7,2 -9,4 -3,2 -5,5 -5,9l-25 0 4 -81 74 0 0 24 -52 0 -2 32c3,-3 6,-6 9,-7 4,-1 8,-2 12,-2 13,0 23,4 30,13 6,8 10,21 10,38 0,21 -4,35 -11,44 -7,10 -18,14 -34,14 -14,0 -25,-4 -31,-12 -7,-8 -11,-20 -11,-37l0 -4zm222 -5l29 0c0,0 0,1 0,3 0,1 0,2 0,3 0,18 -4,31 -12,40 -7,9 -19,13 -34,13 -8,0 -14,-1 -19,-3 -6,-2 -10,-5 -14,-9 -5,-5 -9,-13 -11,-22 -2,-10 -3,-26 -3,-49 0,-16 0,-29 1,-39 2,-9 4,-16 6,-21 5,-7 10,-12 16,-15 6,-3 14,-5 24,-5 15,0 27,4 34,12 7,9 11,22 11,40l-28 0 0 -4c0,-8 -2,-15 -4,-19 -3,-4 -7,-6 -13,-6 -7,0 -11,3 -14,9 -2,5 -4,21 -4,47 0,28 2,45 4,51 2,6 7,9 14,9 7,0 11,-2 14,-7 2,-4 3,-13 3,-26l0 -2zm52 55l0 -155 80 0 0 26 -51 0 0 36 47 0 0 24 -47 0 0 43 52 0 0 26 -81 0zm130 -90l17 0c8,0 14,-1 17,-5 4,-3 5,-9 5,-18 0,-7 -1,-13 -5,-16 -4,-3 -10,-5 -20,-5l-14 0 0 44zm-28 90l0 -155 52 0c16,0 27,3 34,9 7,7 10,17 10,31 0,11 -1,18 -5,24 -4,6 -9,10 -16,11 13,3 20,15 21,34 0,1 0,2 0,2l1 21c0,6 1,11 2,14 1,4 3,7 6,9l-35 0c0,-2 -1,-5 -1,-9 -1,-4 -1,-9 -1,-15l-1 -16 0 -4c0,-9 -2,-16 -5,-19 -4,-3 -12,-5 -24,-5l-10 0 0 68 -28 0zm142 0l0 -130 -33 0 0 -25 95 0 0 25 -33 0 0 130 -29 0zm77 0l0 -155 29 0 0 155 -29 0zm56 0l0 -155 81 0 0 25 -52 0 0 37 49 0 0 25 -49 0 0 68 -29 0zm101 0l0 -155 29 0 0 155 -29 0zm55 0l0 -155 80 0 0 26 -51 0 0 36 48 0 0 24 -48 0 0 43 52 0 0 26 -81 0zm131 -23l13 0c6,0 11,0 14,-1 2,-1 4,-3 6,-5 2,-4 4,-10 6,-17 1,-7 1,-18 1,-33 0,-15 0,-26 -2,-33 -1,-7 -3,-12 -7,-16 -1,-2 -3,-3 -6,-3 -3,-1 -7,-2 -13,-2l-12 0 0 110zm-28 23l0 -155 46 0c10,0 17,1 23,2 5,2 10,4 14,8 5,5 9,12 11,20 3,8 4,21 4,38 0,22 -1,38 -3,47 -1,9 -4,17 -8,23 -3,6 -8,11 -14,13 -7,3 -18,4 -34,4l-39 0zm235 -55l28 0c0,0 0,1 0,3 0,1 0,2 0,3 0,18 -4,31 -11,40 -8,9 -19,13 -35,13 -7,0 -14,-1 -19,-3 -5,-2 -10,-5 -14,-9 -5,-5 -9,-13 -11,-22 -2,-10 -3,-26 -3,-49 0,-16 0,-29 2,-39 1,-9 3,-16 6,-21 4,-7 9,-12 15,-15 6,-3 14,-5 24,-5 16,0 27,4 34,12 8,9 11,22 11,40l-28 0 0 -4c0,-8 -1,-15 -4,-19 -3,-4 -7,-6 -12,-6 -7,0 -12,3 -15,9 -2,5 -3,21 -3,47 0,28 1,45 3,51 3,6 7,9 14,9 7,0 11,-2 14,-7 2,-4 4,-13 4,-26l0 -2zm78 -23c0,26 1,42 4,49 3,6 9,10 17,10 8,0 13,-3 16,-10 3,-6 4,-23 4,-49 0,-25 -1,-42 -4,-48 -3,-7 -9,-10 -17,-10 -7,0 -13,3 -16,10 -3,6 -4,23 -4,48zm-30 0c0,-16 1,-29 2,-39 2,-10 4,-17 8,-22 4,-7 10,-12 16,-15 6,-3 14,-5 24,-5 11,0 19,2 25,5 6,3 12,8 16,15 4,5 6,12 8,22 1,10 2,23 2,39 0,17 -1,30 -2,40 -2,10 -4,17 -8,22 -4,7 -10,12 -16,15 -6,3 -14,5 -25,5 -10,0 -18,-2 -24,-5 -6,-3 -12,-8 -16,-15 -4,-5 -6,-12 -8,-22 -1,-10 -2,-23 -2,-40zm124 78l0 -155 44 0 21 100 22 -100 43 0 0 155 -27 0 0 -138 -29 138 -17 0 -29 -138 0 138 -28 0zm185 -87l12 0c9,0 15,-2 19,-6 3,-3 5,-9 5,-18 0,-8 -1,-14 -5,-18 -3,-3 -9,-5 -19,-5l-12 0 0 47zm-28 87l0 -155 50 0c15,0 26,3 33,10 7,7 10,18 10,34 0,15 -3,26 -11,34 -7,7 -18,11 -32,11l-21 0 0 66 -29 0zm133 -62l25 0 -12 -65 -13 65zm-41 62l35 -155 39 0 35 155 -31 0 -8 -39 -33 0 -8 39 -29 0zm124 0l0 -155 30 0 40 108 0 -108 27 0 0 155 -30 0 -40 -109 1 109 -28 0zm153 0l0 -66 -41 -89 32 0 24 58 23 -58 31 0 -40 89 0 66 -29 0z"/>
   <path class="fil3" d="M2945 1837l-1345 0 -56 -134 30 -52c6,0 13,3 19,7 82,29 166,45 251,45l-26 43 21 50 876 0 25 -47 -251 -446c62,-69 120,-147 179,-215l342 615 -65 134zm-1306 -303l638 -1143 274 485c-69,46 -137,104 -206,166l-68 -117 -208 374c-176,153 -316,222 -427,235 0,0 -3,0 -3,0z"/>
   <path class="fil4" d="M1385 1527l0 0 3 7c192,58 365,72 511,26 186,-59 385,-238 590,-479 120,-133 238,-234 348,-231 52,0 101,19 160,42l0 0 23 10 -23 -10c-502,-413 -912,889 -1612,635zm6 7c938,580 1182,-759 1596,-642l7 0c-134,-42 -228,-19 -307,33 -68,45 -123,111 -179,172 -231,268 -433,440 -596,482 -81,30 -159,36 -244,33 -163,-26 -215,-52 -277,-78z"/>
   <polygon class="fil3" points="2267,205 2254,205 2241,205 2241,205 2017,205 2003,244 2131,335 2131,612 2173,534 2173,313 2085,251 2235,251 2235,251 2254,251 2271,251 2271,251 2469,251 2381,313 2381,527 2424,609 2424,335 2551,244 2538,205 2267,205 "/>
   <path class="fil5" d="M2707 0c19,0 38,5 56,15 18,9 33,24 43,42 10,18 15,37 15,57 0,20 -5,38 -15,57 -10,18 -24,32 -42,42 -18,10 -37,15 -57,15 -20,0 -39,-5 -57,-15 -18,-10 -32,-24 -42,-42 -10,-19 -15,-37 -15,-57 0,-20 5,-39 15,-57 11,-18 25,-33 43,-42 18,-10 37,-15 56,-15zm0 19c-16,0 -31,4 -47,12 -15,8 -27,20 -35,35 -9,16 -13,31 -13,48 0,16 4,32 13,47 8,15 20,27 35,35 15,9 31,13 47,13 17,0 32,-4 47,-13 15,-8 27,-20 36,-35 8,-15 12,-31 12,-47 0,-17 -4,-32 -13,-48 -8,-15 -20,-27 -35,-35 -15,-8 -31,-12 -47,-12zm-50 158l0 -123 42 0c15,0 25,2 32,4 6,2 11,6 15,12 4,5 6,11 6,18 0,8 -4,16 -10,23 -6,7 -15,10 -25,11 4,2 7,4 10,7 5,4 11,12 18,24l15 24 -24 0 -11 -20c-8,-15 -15,-24 -21,-28 -3,-3 -9,-4 -15,-4l-12 0 0 52 -20 0zm20 -69l24 0c11,0 19,-2 23,-5 5,-4 7,-8 7,-14 0,-3 -1,-7 -3,-9 -2,-3 -5,-5 -9,-7 -3,-1 -10,-2 -20,-2l-22 0 0 37z"/>
   <path class="fil2" d="M1168 2151c0,2 0,4 -1,5 0,1 -1,2 -2,3 -1,1 -2,2 -3,2 -2,0 -3,1 -4,1l-8 0c-3,0 -5,-1 -7,-1 -2,-1 -3,-2 -5,-3 -2,-1 -3,-3 -5,-5 -2,-3 -4,-6 -5,-9l-56 -103c-3,-6 -6,-11 -8,-17 -3,-6 -6,-11 -9,-17l0 0c0,7 0,14 0,21 1,7 1,14 1,20l0 110c0,0 -1,1 -1,2 0,0 -1,1 -2,1 -1,0 -2,1 -4,1 -1,0 -3,0 -5,0 -3,0 -5,0 -6,0 -2,0 -3,-1 -4,-1 -1,0 -1,-1 -2,-1 0,-1 0,-2 0,-2l0 -167c0,-4 1,-7 3,-8 2,-2 4,-3 7,-3l12 0c2,0 5,1 6,1 2,0 4,1 6,2 1,1 2,3 4,5 1,2 3,4 4,7l43 79c2,5 5,10 7,15 3,4 5,9 7,13 3,5 5,9 7,14 2,4 4,8 7,13l0 0c0,-8 -1,-15 -1,-23 0,-8 0,-16 0,-23l0 -98c0,-1 1,-2 1,-2 0,-1 1,-1 2,-2 1,0 2,0 4,-1 1,0 3,0 6,0 2,0 4,0 5,0 2,1 3,1 4,1 1,1 1,1 2,2 0,0 0,1 0,2l0 166zm163 -58c0,11 -2,20 -4,29 -3,8 -7,16 -12,22 -6,6 -13,11 -21,15 -8,3 -17,5 -28,5 -10,0 -19,-2 -27,-5 -7,-3 -14,-7 -19,-13 -5,-6 -9,-13 -11,-22 -3,-8 -4,-17 -4,-28 0,-10 1,-20 4,-28 3,-9 7,-16 12,-23 5,-6 12,-11 20,-14 8,-4 17,-5 28,-5 10,0 19,1 27,4 8,3 14,8 19,14 5,5 9,13 12,21 2,8 4,18 4,28zm-24 2c0,-7 -1,-13 -2,-19 -2,-7 -4,-12 -7,-16 -2,-5 -6,-9 -11,-11 -5,-3 -11,-4 -19,-4 -7,0 -13,1 -17,3 -5,3 -9,6 -13,11 -3,4 -5,9 -7,15 -1,6 -2,13 -2,20 0,7 1,14 2,20 1,6 3,11 6,16 3,4 7,8 12,10 5,3 11,4 19,4 6,0 12,-1 17,-3 5,-3 9,-6 12,-10 4,-5 6,-10 7,-16 2,-6 3,-13 3,-20zm165 63c0,1 0,1 0,2 0,0 -1,1 -2,1 -1,0 -2,1 -3,1 -1,0 -3,0 -5,0 -2,0 -4,0 -5,0 -2,0 -3,-1 -3,-1 -1,0 -2,-1 -2,-1 0,-1 0,-1 0,-2l0 -17c-8,8 -15,14 -22,17 -7,4 -14,6 -21,6 -8,0 -15,-2 -21,-4 -6,-3 -11,-7 -14,-12 -4,-5 -6,-10 -8,-16 -1,-7 -2,-15 -2,-24l0 -76c0,-1 0,-1 0,-2 1,0 1,-1 2,-1 1,-1 2,-1 4,-1 1,0 3,0 6,0 2,0 4,0 5,0 2,0 3,0 4,1 1,0 1,1 2,1 0,1 0,1 0,2l0 73c0,8 1,13 2,18 1,4 2,8 5,11 2,3 5,6 8,8 3,1 7,2 12,2 5,0 11,-2 17,-6 6,-4 12,-10 18,-18l0 -88c0,-1 0,-1 1,-2 0,0 1,-1 2,-1 1,-1 2,-1 3,-1 2,0 4,0 6,0 2,0 4,0 5,0 2,0 3,0 4,1 1,0 1,1 2,1 0,1 0,1 0,2l0 126zm117 -118c0,2 0,4 0,5 0,2 -1,3 -1,4 0,0 -1,1 -1,1 0,1 -1,1 -2,1 0,0 -1,0 -2,-1 -1,0 -3,-1 -4,-1 -1,0 -3,-1 -5,-1 -1,0 -3,-1 -5,-1 -2,0 -5,1 -7,2 -2,1 -4,2 -7,4 -2,3 -5,5 -8,9 -2,4 -5,8 -9,13l0 83c0,1 0,1 0,2 -1,0 -1,1 -2,1 -1,0 -2,1 -3,1 -2,0 -4,0 -6,0 -3,0 -4,0 -6,0 -1,0 -3,-1 -3,-1 -1,0 -2,-1 -2,-1 -1,-1 -1,-1 -1,-2l0 -126c0,-1 0,-1 1,-2 0,0 0,-1 1,-1 1,-1 2,-1 4,-1 1,0 3,0 5,0 2,0 4,0 5,0 1,0 2,0 3,1 1,0 1,1 2,1 0,1 0,1 0,2l0 18c4,-5 7,-9 10,-12 3,-3 6,-6 8,-8 3,-1 6,-3 8,-3 3,-1 6,-1 9,-1 1,0 2,0 4,0 1,0 3,0 4,1 2,0 4,0 5,1 1,0 2,1 3,1 0,1 1,1 1,2 0,0 0,0 0,1 1,1 1,2 1,3 0,1 0,3 0,5zm49 118c0,1 0,1 0,2 -1,0 -1,1 -2,1 -1,0 -2,1 -4,1 -1,0 -3,0 -5,0 -3,0 -5,0 -6,0 -2,0 -3,-1 -4,-1 0,0 -1,-1 -1,-1 -1,-1 -1,-1 -1,-2l0 -126c0,-1 0,-1 1,-2 0,0 1,-1 1,-1 1,-1 2,-1 4,-1 1,0 3,0 6,0 2,0 4,0 5,0 2,0 3,0 4,1 1,0 1,1 2,1 0,1 0,1 0,2l0 126zm3 -169c0,6 -1,10 -3,12 -2,2 -6,3 -12,3 -5,0 -9,-1 -11,-3 -2,-2 -3,-6 -3,-11 0,-6 1,-9 3,-11 2,-2 6,-3 12,-3 5,0 9,1 11,3 2,2 3,5 3,10zm119 134c0,7 -1,13 -4,18 -2,5 -5,9 -10,12 -4,4 -9,6 -16,8 -6,2 -12,3 -20,3 -4,0 -8,0 -12,-1 -4,-1 -8,-2 -11,-3 -3,-1 -6,-2 -8,-3 -3,-1 -4,-2 -5,-3 -1,-1 -2,-2 -3,-4 0,-2 0,-4 0,-7 0,-2 0,-3 0,-4 0,-2 0,-3 1,-3 0,-1 0,-2 1,-2 0,0 1,0 2,0 1,0 2,0 4,1 2,2 5,3 8,5 3,1 6,2 10,4 4,1 9,2 14,2 4,0 7,-1 10,-2 4,-1 6,-2 9,-3 2,-2 4,-4 5,-7 1,-2 2,-5 2,-9 0,-3 -1,-6 -3,-9 -2,-2 -4,-4 -7,-6 -3,-2 -6,-4 -10,-5 -4,-2 -8,-3 -12,-5 -3,-1 -7,-3 -11,-5 -4,-2 -7,-4 -10,-7 -3,-3 -6,-7 -7,-11 -2,-4 -3,-8 -3,-14 0,-5 1,-10 3,-14 2,-5 5,-9 8,-12 4,-4 9,-6 15,-8 5,-2 12,-3 20,-3 3,0 7,0 10,0 3,1 6,2 9,3 3,0 5,1 7,2 2,1 3,2 4,3 1,1 2,2 2,2 1,1 1,1 1,2 0,1 0,2 0,3 0,1 1,2 1,3 0,2 -1,3 -1,4 0,2 0,3 0,3 -1,1 -1,2 -2,2 0,0 -1,0 -1,0 -1,0 -2,0 -4,-1 -1,-1 -3,-2 -6,-4 -2,-1 -5,-2 -9,-3 -3,-1 -7,-1 -12,-1 -3,0 -7,0 -10,1 -3,1 -5,2 -7,4 -2,1 -4,3 -5,5 -1,3 -1,5 -1,8 0,3 1,6 3,9 2,2 4,4 7,6 3,2 6,4 10,5 4,2 8,3 12,5 4,2 8,3 12,5 4,2 7,5 10,7 3,3 5,7 7,10 2,4 3,9 3,14zm141 35c0,1 0,1 -1,2 0,0 0,1 -1,1 -1,0 -2,1 -4,1 -1,0 -3,0 -5,0 -3,0 -5,0 -6,0 -2,0 -3,-1 -4,-1 -1,0 -1,-1 -2,-1 0,-1 0,-1 0,-2l0 -74c0,-7 -1,-13 -2,-17 -1,-5 -3,-8 -5,-12 -2,-3 -5,-5 -8,-7 -3,-2 -7,-2 -12,-2 -5,0 -11,2 -17,6 -6,4 -12,10 -18,18l0 88c0,1 0,1 -1,2 0,0 -1,1 -1,1 -1,0 -2,1 -4,1 -1,0 -3,0 -6,0 -2,0 -4,0 -5,0 -2,0 -3,-1 -4,-1 -1,0 -1,-1 -2,-1 0,-1 0,-1 0,-2l0 -187c0,-1 0,-1 0,-2 1,0 1,-1 2,-1 1,-1 2,-1 4,-1 1,0 3,0 5,0 3,0 5,0 6,0 2,0 3,0 4,1 0,0 1,1 1,1 1,1 1,1 1,2l0 75c7,-7 13,-12 20,-15 7,-4 13,-5 20,-5 9,0 16,1 21,4 6,3 11,6 14,11 4,5 6,11 8,17 1,6 2,14 2,23l0 77zm65 0c0,1 0,1 0,2 -1,0 -1,1 -2,1 -1,0 -2,1 -3,1 -2,0 -4,0 -6,0 -3,0 -4,0 -6,0 -1,0 -3,-1 -3,-1 -1,0 -2,-1 -2,-1 -1,-1 -1,-1 -1,-2l0 -126c0,-1 0,-1 1,-2 0,0 1,-1 2,-1 0,-1 2,-1 3,-1 2,0 3,0 6,0 2,0 4,0 6,0 1,0 2,0 3,1 1,0 1,1 2,1 0,1 0,1 0,2l0 126zm3 -169c0,6 -1,10 -3,12 -2,2 -6,3 -11,3 -6,0 -10,-1 -12,-3 -2,-2 -3,-6 -3,-11 0,-6 1,-9 3,-11 3,-2 6,-3 12,-3 5,0 9,1 11,3 2,2 3,5 3,10zm148 169c0,1 0,1 0,2 -1,0 -1,1 -2,1 -1,0 -2,1 -4,1 -1,0 -3,0 -5,0 -3,0 -5,0 -6,0 -2,0 -3,-1 -4,-1 0,0 -1,-1 -1,-1 -1,-1 -1,-1 -1,-2l0 -74c0,-7 -1,-13 -2,-17 -1,-5 -2,-8 -5,-12 -2,-3 -4,-5 -8,-7 -3,-2 -7,-2 -12,-2 -5,0 -11,2 -17,6 -6,4 -12,10 -18,18l0 88c0,1 0,1 0,2 -1,0 -1,1 -2,1 -1,0 -2,1 -4,1 -1,0 -3,0 -6,0 -2,0 -4,0 -5,0 -2,0 -3,-1 -4,-1 -1,0 -1,-1 -2,-1 0,-1 0,-1 0,-2l0 -126c0,-1 0,-1 0,-2 1,0 1,-1 2,-1 1,-1 2,-1 3,-1 2,0 3,0 5,0 3,0 4,0 6,0 1,0 2,0 3,1 1,0 1,1 1,1 1,1 1,1 1,2l0 17c7,-8 14,-14 21,-18 7,-4 14,-5 21,-5 9,0 16,1 21,4 6,3 11,6 14,11 4,5 6,11 8,17 1,6 2,14 2,23l0 77zm147 -120c0,3 0,5 -1,7 -1,1 -2,2 -3,2l-18 0c3,3 5,7 6,11 2,4 2,8 2,13 0,7 -1,13 -3,19 -2,5 -6,10 -10,14 -4,4 -10,7 -16,9 -6,2 -12,3 -19,3 -6,0 -10,-1 -15,-2 -5,-1 -8,-3 -11,-5 -1,2 -3,4 -4,6 -1,2 -1,4 -1,7 0,3 1,6 4,8 3,2 7,4 12,4l33 1c6,0 12,1 17,3 6,1 10,3 14,6 4,3 7,7 9,11 2,4 3,9 3,14 0,6 -1,12 -4,17 -2,5 -6,10 -11,13 -5,4 -11,8 -19,10 -8,2 -17,3 -27,3 -10,0 -19,-1 -26,-2 -7,-2 -13,-4 -18,-7 -4,-3 -8,-7 -10,-11 -2,-4 -3,-9 -3,-14 0,-3 1,-6 1,-9 1,-2 2,-5 4,-8 1,-2 3,-5 6,-7 2,-3 5,-5 8,-7 -5,-3 -8,-6 -11,-9 -2,-4 -3,-7 -3,-12 0,-5 1,-10 4,-15 2,-4 5,-8 8,-12 -3,-3 -5,-7 -7,-12 -1,-4 -2,-9 -2,-15 0,-7 1,-14 3,-20 3,-5 6,-10 10,-14 5,-4 10,-7 16,-9 6,-2 13,-3 20,-3 3,0 7,0 10,1 4,0 7,1 10,1l38 0c1,0 2,1 3,3 1,1 1,4 1,7zm-36 33c0,-9 -2,-15 -7,-20 -4,-5 -11,-7 -20,-7 -4,0 -8,0 -11,2 -4,1 -6,3 -9,6 -2,3 -3,6 -5,9 -1,3 -1,7 -1,11 0,8 2,14 7,19 5,5 11,7 20,7 4,0 8,0 12,-2 3,-1 6,-3 8,-6 2,-2 4,-5 5,-9 1,-3 1,-7 1,-10zm12 99c0,-5 -2,-9 -7,-12 -4,-3 -10,-5 -18,-5l-32 -1c-3,2 -6,5 -8,7 -2,2 -3,4 -4,6 -1,2 -2,4 -2,5 -1,2 -1,4 -1,6 0,6 3,11 9,14 6,3 15,5 26,5 7,0 13,-1 17,-2 5,-2 9,-4 12,-6 3,-2 5,-5 6,-8 1,-2 2,-5 2,-9zm233 -137c0,9 -2,18 -5,25 -3,7 -7,13 -13,18 -5,6 -12,10 -20,12 -8,3 -18,5 -29,5l-21 0 0 65c0,0 0,1 0,2 -1,0 -1,1 -2,1 -1,0 -2,1 -4,1 -1,0 -3,0 -6,0 -2,0 -4,0 -5,0 -2,0 -3,-1 -4,-1 -1,0 -2,-1 -2,-1 0,-1 -1,-2 -1,-2l0 -167c0,-4 1,-7 3,-8 2,-2 4,-3 7,-3l39 0c4,0 7,0 11,1 3,0 8,1 13,2 5,1 9,3 15,6 5,3 9,6 13,11 3,4 6,9 8,15 2,5 3,12 3,18zm-26 2c0,-7 -1,-13 -4,-18 -3,-5 -6,-9 -10,-11 -4,-3 -8,-4 -13,-5 -4,-1 -8,-1 -12,-1l-23 0 0 73 22 0c7,0 14,-1 18,-3 5,-2 9,-4 12,-8 4,-3 6,-7 8,-12 1,-4 2,-9 2,-15zm133 5c0,2 0,4 0,5 0,2 0,3 0,4 -1,0 -1,1 -1,1 -1,1 -1,1 -2,1 -1,0 -2,0 -3,-1 -1,0 -2,-1 -3,-1 -2,0 -3,-1 -5,-1 -2,0 -3,-1 -5,-1 -3,0 -5,1 -7,2 -2,1 -5,2 -7,4 -3,3 -5,5 -8,9 -3,4 -6,8 -9,13l0 83c0,1 0,1 -1,2 0,0 -1,1 -1,1 -1,0 -2,1 -4,1 -1,0 -3,0 -6,0 -2,0 -4,0 -5,0 -2,0 -3,-1 -4,-1 -1,0 -1,-1 -2,-1 0,-1 0,-1 0,-2l0 -126c0,-1 0,-1 0,-2 1,0 1,-1 2,-1 1,-1 2,-1 3,-1 1,0 3,0 5,0 2,0 4,0 5,0 2,0 3,0 4,1 0,0 1,1 1,1 1,1 1,1 1,2l0 18c3,-5 6,-9 9,-12 3,-3 6,-6 9,-8 3,-1 5,-3 8,-3 3,-1 5,-1 8,-1 1,0 3,0 4,0 2,0 3,0 5,1 2,0 3,0 5,1 1,0 2,1 2,1 1,1 1,1 2,2 0,0 0,0 0,1 0,1 0,2 0,3 0,1 0,3 0,5zm139 53c0,11 -2,20 -4,29 -3,8 -7,16 -12,22 -6,6 -12,11 -20,15 -8,3 -18,5 -28,5 -11,0 -20,-2 -27,-5 -8,-3 -15,-7 -20,-13 -5,-6 -9,-13 -11,-22 -3,-8 -4,-17 -4,-28 0,-10 1,-20 4,-28 3,-9 7,-16 12,-23 5,-6 12,-11 20,-14 8,-4 18,-5 28,-5 11,0 20,1 27,4 8,3 14,8 19,14 6,5 9,13 12,21 3,8 4,18 4,28zm-24 2c0,-7 -1,-13 -2,-19 -1,-7 -3,-12 -6,-16 -3,-5 -7,-9 -12,-11 -5,-3 -11,-4 -19,-4 -7,0 -12,1 -17,3 -5,3 -9,6 -12,11 -4,4 -6,9 -7,15 -2,6 -3,13 -3,20 0,7 1,14 2,20 1,6 3,11 6,16 3,4 7,8 12,10 5,3 11,4 19,4 7,0 12,-1 17,-3 5,-3 9,-6 13,-10 3,-5 5,-10 7,-16 1,-6 2,-13 2,-20z"/>
   <path class="fil2" d="M2832 2123c0,7 -1,13 -4,18 -2,5 -5,9 -10,12 -4,4 -9,6 -15,8 -6,2 -13,3 -20,3 -5,0 -9,0 -13,-1 -4,-1 -8,-2 -11,-3 -3,-1 -6,-2 -8,-3 -2,-1 -4,-2 -5,-3 -1,-1 -2,-2 -2,-4 -1,-2 -1,-4 -1,-7 0,-2 0,-3 0,-4 0,-2 1,-3 1,-3 0,-1 1,-2 1,-2 1,0 1,0 2,0 1,0 2,0 4,1 2,2 5,3 8,5 3,1 6,2 10,4 4,1 9,2 14,2 4,0 7,-1 11,-2 3,-1 6,-2 8,-3 2,-2 4,-4 5,-7 2,-2 2,-5 2,-9 0,-3 -1,-6 -3,-9 -1,-2 -4,-4 -7,-6 -3,-2 -6,-4 -10,-5 -4,-2 -7,-3 -11,-5 -4,-1 -8,-3 -12,-5 -4,-2 -7,-4 -10,-7 -3,-3 -5,-7 -7,-11 -2,-4 -3,-8 -3,-14 0,-5 1,-10 3,-14 2,-5 5,-9 9,-12 3,-4 8,-6 14,-8 6,-2 12,-3 20,-3 3,0 7,0 10,0 3,1 6,2 9,3 3,0 5,1 7,2 2,1 3,2 4,3 1,1 2,2 2,2 1,1 1,1 1,2 0,1 0,2 1,3 0,1 0,2 0,3 0,2 0,3 0,4 -1,2 -1,3 -1,3 -1,1 -1,2 -1,2 -1,0 -1,0 -2,0 -1,0 -2,0 -4,-1 -1,-1 -3,-2 -6,-4 -2,-1 -5,-2 -9,-3 -3,-1 -7,-1 -11,-1 -4,0 -8,0 -11,1 -3,1 -5,2 -7,4 -2,1 -3,3 -4,5 -1,3 -2,5 -2,8 0,3 1,6 3,9 2,2 4,4 7,6 3,2 7,4 10,5 4,2 8,3 12,5 4,2 8,3 12,5 4,2 7,5 10,7 3,3 6,7 7,10 2,4 3,9 3,14zm149 -30c0,11 -1,21 -4,29 -2,9 -6,17 -10,23 -5,6 -11,11 -17,14 -7,3 -15,5 -24,5 -3,0 -7,-1 -10,-1 -3,-1 -6,-2 -9,-4 -3,-1 -6,-3 -9,-6 -3,-2 -6,-5 -10,-8l0 63c0,1 0,1 0,2 -1,0 -1,1 -2,1 -1,0 -2,1 -4,1 -1,0 -3,0 -5,0 -3,0 -5,0 -6,0 -2,0 -3,-1 -4,-1 -1,0 -1,-1 -2,-1 0,-1 0,-1 0,-2l0 -176c0,-1 0,-2 0,-2 1,-1 1,-1 2,-1 1,-1 2,-1 3,-1 2,0 3,0 5,0 2,0 4,0 5,0 1,0 2,0 3,1 1,0 2,0 2,1 0,0 0,1 0,2l0 17c4,-4 8,-8 11,-10 4,-3 8,-6 11,-8 4,-2 7,-3 11,-4 4,-1 8,-1 12,-1 9,0 17,1 23,5 7,3 12,8 16,14 4,7 7,14 9,22 2,8 3,17 3,26zm-24 2c0,-6 -1,-12 -2,-18 -1,-6 -3,-12 -5,-16 -2,-5 -5,-9 -9,-11 -4,-3 -9,-5 -15,-5 -3,0 -6,1 -9,2 -3,1 -6,2 -9,4 -3,2 -6,4 -9,7 -4,4 -7,7 -11,12l0 50c7,8 13,14 18,18 6,4 12,6 18,6 6,0 11,-1 15,-4 4,-3 8,-7 10,-11 3,-5 5,-10 6,-16 1,-6 2,-12 2,-18zm166 -6c0,4 -1,7 -3,8 -2,2 -4,2 -6,2l-83 0c0,7 1,14 2,19 1,6 4,11 7,15 3,4 8,7 13,9 5,2 11,3 19,3 6,0 11,0 16,-1 5,-1 9,-2 12,-3 3,-2 6,-3 8,-4 3,-1 4,-1 5,-1 1,0 2,0 2,0 1,1 1,1 1,2 1,0 1,1 1,2 0,2 0,3 0,5 0,1 0,2 0,3 0,1 0,2 0,2 -1,1 -1,2 -1,2 0,1 -1,1 -1,2 -1,0 -2,1 -5,2 -2,1 -6,2 -10,4 -4,1 -8,2 -14,3 -5,0 -10,1 -16,1 -11,0 -20,-2 -27,-4 -8,-3 -15,-8 -20,-13 -5,-6 -9,-13 -12,-22 -3,-8 -4,-18 -4,-30 0,-10 1,-20 4,-29 3,-8 7,-16 12,-22 5,-6 12,-10 19,-14 8,-3 16,-4 25,-4 10,0 18,1 25,4 7,3 13,8 18,13 4,5 7,12 9,19 2,7 4,15 4,23l0 4zm-24 -6c1,-13 -2,-22 -8,-29 -5,-7 -14,-10 -25,-10 -6,0 -11,1 -15,3 -4,2 -8,5 -11,8 -3,4 -5,8 -6,13 -2,4 -3,9 -3,15l68 0zm132 -43c0,2 0,4 0,5 0,2 0,3 0,4 0,0 -1,1 -1,1 -1,1 -1,1 -2,1 -1,0 -2,0 -3,-1 -1,0 -2,-1 -3,-1 -2,0 -3,-1 -5,-1 -2,0 -3,-1 -5,-1 -3,0 -5,1 -7,2 -2,1 -5,2 -7,4 -3,3 -5,5 -8,9 -3,4 -6,8 -9,13l0 83c0,1 0,1 0,2 -1,0 -1,1 -2,1 -1,0 -2,1 -4,1 -1,0 -3,0 -6,0 -2,0 -4,0 -5,0 -2,0 -3,-1 -4,-1 -1,0 -1,-1 -2,-1 0,-1 0,-1 0,-2l0 -126c0,-1 0,-1 0,-2 1,0 1,-1 2,-1 1,-1 2,-1 3,-1 2,0 3,0 5,0 2,0 4,0 6,0 1,0 2,0 3,1 0,0 1,1 1,1 1,1 1,1 1,2l0 18c3,-5 7,-9 10,-12 3,-3 5,-6 8,-8 3,-1 6,-3 8,-3 3,-1 5,-1 8,-1 1,0 3,0 4,0 2,0 3,0 5,1 2,0 3,0 5,1 1,0 2,1 3,1 0,1 0,1 1,2 0,0 0,0 0,1 0,1 0,2 0,3 0,1 0,3 0,5zm50 118c0,1 0,1 -1,2 0,0 -1,1 -1,1 -1,0 -2,1 -4,1 -1,0 -3,0 -6,0 -2,0 -4,0 -5,0 -2,0 -3,-1 -4,-1 -1,0 -1,-1 -2,-1 0,-1 0,-1 0,-2l0 -126c0,-1 0,-1 0,-2 1,0 1,-1 2,-1 1,-1 2,-1 4,-1 1,0 3,0 5,0 3,0 5,0 6,0 2,0 3,0 4,1 0,0 1,1 1,1 1,1 1,1 1,2l0 126zm3 -169c0,6 -2,10 -4,12 -2,2 -5,3 -11,3 -5,0 -9,-1 -11,-3 -2,-2 -3,-6 -3,-11 0,-6 1,-9 3,-11 2,-2 6,-3 11,-3 6,0 9,1 11,3 3,2 4,5 4,10zm105 159c0,3 0,5 -1,7 0,1 -1,3 -2,3 0,1 -1,2 -3,2 -1,1 -3,2 -5,2 -2,1 -4,1 -6,1 -2,0 -4,1 -6,1 -7,0 -13,-1 -17,-3 -5,-2 -9,-4 -12,-8 -3,-3 -5,-8 -6,-13 -1,-5 -2,-12 -2,-19l0 -73 -18 0c-1,0 -2,-1 -3,-3 -1,-1 -1,-4 -1,-7 0,-2 0,-3 0,-4 0,-2 0,-3 1,-3 0,-1 1,-2 1,-2 1,0 2,-1 2,-1l18 0 0 -29c0,-1 0,-2 0,-2 1,-1 1,-1 2,-2 1,0 2,0 4,-1 1,0 3,0 5,0 3,0 5,0 6,0 2,1 3,1 4,1 1,1 1,1 2,2 0,0 0,1 0,2l0 29 32 0c1,0 2,1 2,1 1,0 1,1 2,2 0,0 0,1 0,3 1,1 1,2 1,4 0,3 -1,6 -2,7 0,2 -1,3 -3,3l-32 0 0 70c0,8 1,15 4,19 2,5 7,7 14,7 2,0 4,0 5,-1 2,0 3,-1 5,-1 1,-1 2,-1 3,-1 1,-1 2,-1 3,-1 0,0 0,0 1,0 0,0 1,1 1,2 0,0 0,1 0,2 1,1 1,3 1,4zm88 13l-17 47c-1,1 -2,2 -4,3 -3,1 -6,1 -11,1 -2,0 -4,0 -6,0 -1,0 -2,-1 -3,-1 -1,-1 -1,-2 -1,-3 -1,0 0,-2 0,-3l18 -44c-1,0 -2,-1 -3,-2 -1,0 -1,-1 -1,-2l-45 -120c-1,-2 -1,-4 -1,-5 0,-1 0,-2 1,-3 1,0 2,-1 3,-1 2,0 4,0 7,0 3,0 5,0 7,0 1,0 3,0 3,1 1,0 2,0 2,1 1,1 1,2 2,3l36 101 0 0 35 -102c0,-1 1,-2 2,-3 1,0 2,-1 3,-1 2,0 4,0 7,0 3,0 5,0 7,0 1,0 3,1 3,1 1,1 2,2 2,3 0,1 -1,2 -1,4l-45 125z"/>
   <path class="fil5" d="M4579 2407c13,0 27,3 40,10 12,7 23,17 30,30 7,13 11,27 11,41 0,13 -4,27 -11,40 -7,13 -17,22 -30,30 -13,7 -26,10 -40,10 -14,0 -28,-3 -40,-10 -13,-8 -23,-17 -30,-30 -7,-13 -11,-27 -11,-40 0,-14 4,-28 11,-41 7,-13 17,-23 30,-30 13,-7 26,-10 40,-10zm0 13c-11,0 -23,3 -33,9 -11,6 -19,14 -25,25 -7,11 -10,22 -10,34 0,11 3,22 9,33 6,11 15,19 25,25 11,6 22,9 34,9 11,0 23,-3 33,-9 11,-6 19,-14 25,-25 6,-11 9,-22 9,-33 0,-12 -3,-23 -9,-34 -6,-11 -14,-19 -25,-25 -11,-6 -22,-9 -33,-9zm-36 112l0 -87 30 0c11,0 18,1 22,3 5,1 9,4 11,8 3,4 4,8 4,13 0,6 -2,12 -6,16 -5,5 -11,8 -18,8 3,2 5,3 7,5 3,3 8,9 13,17l10 17 -17 0 -7 -14c-6,-10 -11,-17 -15,-20 -3,-2 -6,-3 -11,-3l-9 0 0 37 -14 0zm14 -49l17 0c9,0 14,-1 17,-3 3,-3 5,-6 5,-10 0,-2 -1,-5 -3,-7 -1,-2 -3,-3 -6,-4 -2,-1 -7,-2 -14,-2l-16 0 0 26z"/>
   <line class="fil6 str0" x1="0" y1="3771" x2="4554" y2= "3771" />
  </g>
 </g>
 <g id="Layer_x0020_1_0">
  <metadata id="CorelCorpID_1Corel-Layer"/>
 </g>
</svg>
